<?xml version="1.0" encoding="utf-8"?>
<!-- Svg Vector Icons : http://www.onlinewebfonts.com/icon -->
<!DOCTYPE svg PUBLIC "-//W3C//DTD SVG 1.1//EN" "http://www.w3.org/Graphics/SVG/1.1/DTD/svg11.dtd">
<svg version="1.1" xmlns="http://www.w3.org/2000/svg" xmlns:xlink="http://www.w3.org/1999/xlink" x="0px" y="0px" viewBox="0 0 1000 1000" enable-background="new 0 0 1000 1000" xml:space="preserve">
<metadata> Svg Vector Icons : http://www.onlinewebfonts.com/icon </metadata>
<g><g><path d="M493.5,10C222.9,13.7,6.4,236,10,506.6C13.7,777.1,236,993.6,506.6,990c270.5-3.6,487-226,483.4-496.6C986.3,222.9,764,6.4,493.5,10z M492,798.3l-2.7,0c-41.7-1.2-71.1-31.9-69.9-73c1.2-40.4,31.3-69.6,71.6-69.6l2.4,0c42.8,1.3,71.9,31.7,70.7,73.9C562.9,770,533.3,798.3,492,798.3z M667.3,450.4c-9.8,13.9-31.3,31.2-58.5,52.4l-29.9,20.6c-16.4,12.8-26.3,24.8-30,36.6c-2.9,9.3-4.4,11.8-4.6,30.7l0,4.8H430l0.3-9.7c1.4-39.7,2.4-63.1,18.8-82.4c25.8-30.3,82.8-67,85.2-68.5c8.2-6.1,15-13.1,20.2-20.6c12-16.5,17.3-29.5,17.3-42.3c0-17.7-5.3-34.1-15.7-48.7c-10-14.1-29-21.2-56.5-21.2c-27.3,0-45.9,8.6-57.1,26.4c-11.5,18.2-17.3,37.4-17.3,57v4.9H307.6l0.2-5.1c3-72.1,28.8-124,76.5-154.3c30-19.3,67.2-29.1,110.8-29.1c56.9,0,105,13.8,142.9,41.1c38.3,27.7,57.8,69.1,57.8,123.1C695.7,396.2,686.1,424.6,667.3,450.4z"/></g><g></g><g></g><g></g><g></g><g></g><g></g><g></g><g></g><g></g><g></g><g></g><g></g><g></g><g></g><g></g></g>
</svg>